<?xml version="1.0" encoding="us-ascii" standalone="no"?><svg xmlns="http://www.w3.org/2000/svg" xmlns:xlink="http://www.w3.org/1999/xlink" contentStyleType="text/css" height="1988px" preserveAspectRatio="none" style="width:1238px;height:1988px;background:#F8FAFC;" version="1.1" viewBox="0 0 1238 1988" width="1238px" zoomAndPan="magnify"><defs/><g><rect fill="#F8FAFC" height="1988" style="stroke:none;stroke-width:1.0;" width="1238" x="0" y="0"/><text fill="#000000" font-family="Segoe UI" font-size="14" font-weight="bold" lengthAdjust="spacing" textLength="420" x="402" y="25.1074">Capitulo 4 - Modelo Conceptual (estado actual del repositorio)</text><!--cluster Cuenta y autenticacion--><g id="cluster_Cuenta y autenticacion"><rect fill="#EEF4FA" height="210" rx="6" ry="6" style="stroke:#9FB3C8;stroke-width:1.5;" width="520" x="56.5" y="561.6211"/><text fill="#000000" font-family="Segoe UI" font-size="13" font-weight="bold" lengthAdjust="spacing" textLength="141" x="246" y="577.6494">Cuenta y autenticacion</text></g><!--cluster Habitos y nutricion--><g id="cluster_Habitos y nutricion"><rect fill="#EEF4FA" height="353" rx="6" ry="6" style="stroke:#9FB3C8;stroke-width:1.5;" width="880.5" x="48" y="1629.6211"/><text fill="#000000" font-family="Segoe UI" font-size="13" font-weight="bold" lengthAdjust="spacing" textLength="119" x="428.75" y="1645.6494">Habitos y nutricion</text></g><!--cluster Avisos--><g id="cluster_Avisos"><rect fill="#EEF4FA" height="491" rx="6" ry="6" style="stroke:#9FB3C8;stroke-width:1.5;" width="720" x="282" y="46.6211"/><text fill="#000000" font-family="Segoe UI" font-size="13" font-weight="bold" lengthAdjust="spacing" textLength="40" x="622" y="62.6494">Avisos</text></g><!--cluster Soporte--><g id="cluster_Soporte"><rect fill="#EEF4FA" height="228" rx="6" ry="6" style="stroke:#9FB3C8;stroke-width:1.5;" width="189" x="365" y="795.6211"/><text fill="#000000" font-family="Segoe UI" font-size="13" font-weight="bold" lengthAdjust="spacing" textLength="48" x="435.5" y="811.6494">Soporte</text></g><!--cluster Gamificacion--><g id="cluster_Gamificacion"><rect fill="#EEF4FA" height="369" rx="6" ry="6" style="stroke:#9FB3C8;stroke-width:1.5;" width="499.5" x="732.5" y="813.6211"/><text fill="#000000" font-family="Segoe UI" font-size="13" font-weight="bold" lengthAdjust="spacing" textLength="80" x="942.25" y="829.6494">Gamificacion</text></g><!--cluster Lecturas calculadas en cliente--><g id="cluster_Lecturas calculadas en cliente"><rect fill="#EEF4FA" height="539" rx="6" ry="6" style="stroke:#9FB3C8;stroke-width:1.5;" width="226" x="346.5" y="1047.6211"/><text fill="#000000" font-family="Segoe UI" font-size="13" font-weight="bold" lengthAdjust="spacing" textLength="182" x="368.5" y="1063.6494">Lecturas calculadas en cliente</text></g><!--class Usuario--><g id="elem_Usuario"><rect codeLine="28" fill="#FFFFFF" height="141.7461" id="Usuario" rx="6" ry="6" style="stroke:#6E879D;stroke-width:0.5;" width="157" x="80.5" y="605.6211"/><ellipse cx="132.5" cy="620.6211" fill="#ADD1B2" rx="10" ry="10" style="stroke:#181818;stroke-width:1.0;"/><path d="M133.4375,617.2617 Q133.5625,617.0898 133.7031,617.0117 Q133.8438,616.9336 134.0156,616.9336 Q134.2969,616.9336 134.4688,617.1367 Q134.6563,617.3242 134.6563,617.793 L134.6563,618.9023 Q134.6563,619.3711 134.4688,619.5742 Q134.2969,619.7617 134.0156,619.7617 Q133.75,619.7617 133.5938,619.6211 Q133.4375,619.4805 133.3594,619.0742 Q133.3125,618.8086 133.1875,618.668 Q132.9219,618.3711 132.4531,618.1992 Q131.9844,618.0273 131.5156,618.0273 Q130.9375,618.0273 130.4375,618.293 Q129.9531,618.543 129.5781,619.1211 Q129.2031,619.6836 129.2031,620.4648 L129.2031,621.3086 Q129.2031,622.2461 129.8906,622.8867 Q130.5781,623.5117 131.7813,623.5117 Q132.5156,623.5117 133.0156,623.3086 Q133.2969,623.1992 133.625,622.8555 Q133.8281,622.6523 133.9375,622.6055 Q134.0625,622.543 134.2031,622.543 Q134.4688,622.543 134.6563,622.7461 Q134.8594,622.9336 134.8594,623.1992 Q134.8594,623.4648 134.5938,623.7773 Q134.2031,624.2148 133.5938,624.4648 Q132.7813,624.8086 131.7969,624.8086 Q130.6406,624.8086 129.7031,624.3398 Q128.9531,623.9492 128.4219,623.1367 Q127.9063,622.3086 127.9063,621.3398 L127.9063,620.4492 Q127.9063,619.4336 128.375,618.5586 Q128.8594,617.6836 129.6875,617.2148 Q130.5313,616.7305 131.4688,616.7305 Q132.0313,616.7305 132.5156,616.8711 Q133.0156,616.9961 133.4375,617.2617 Z " fill="#000000"/><text fill="#000000" font-family="Segoe UI" font-size="13" lengthAdjust="spacing" textLength="45" x="151.5" y="626.0039">Usuario</text><line style="stroke:#6E879D;stroke-width:0.5;" x1="81.5" x2="236.5" y1="635.6211" y2="635.6211"/><text fill="#000000" font-family="Segoe UI" font-size="13" lengthAdjust="spacing" textLength="89" x="86.5" y="653.6494">+id_usuario: int</text><text fill="#000000" font-family="Segoe UI" font-size="13" lengthAdjust="spacing" textLength="88" x="86.5" y="670.9404">+correo: string</text><text fill="#000000" font-family="Segoe UI" font-size="13" lengthAdjust="spacing" textLength="95" x="86.5" y="688.2314">+nombre: string</text><text fill="#000000" font-family="Segoe UI" font-size="13" lengthAdjust="spacing" textLength="110" x="86.5" y="705.5225">+hash_clave: string</text><text fill="#000000" font-family="Segoe UI" font-size="13" lengthAdjust="spacing" textLength="120" x="86.5" y="722.8135">+preferencias: jsonb</text><text fill="#000000" font-family="Segoe UI" font-size="13" lengthAdjust="spacing" textLength="145" x="86.5" y="740.1045">+f_creacion: timestamptz</text></g><!--class PasswordResetToken--><g id="elem_PasswordResetToken"><rect codeLine="37" fill="#FFFFFF" height="141.7461" id="PasswordResetToken" rx="6" ry="6" style="stroke:#6E879D;stroke-width:0.5;" width="186" x="366.5" y="605.6211"/><ellipse cx="395.35" cy="620.6211" fill="#ADD1B2" rx="10" ry="10" style="stroke:#181818;stroke-width:1.0;"/><path d="M396.2875,617.2617 Q396.4125,617.0898 396.5531,617.0117 Q396.6938,616.9336 396.8656,616.9336 Q397.1469,616.9336 397.3188,617.1367 Q397.5063,617.3242 397.5063,617.793 L397.5063,618.9023 Q397.5063,619.3711 397.3188,619.5742 Q397.1469,619.7617 396.8656,619.7617 Q396.6,619.7617 396.4438,619.6211 Q396.2875,619.4805 396.2094,619.0742 Q396.1625,618.8086 396.0375,618.668 Q395.7719,618.3711 395.3031,618.1992 Q394.8344,618.0273 394.3656,618.0273 Q393.7875,618.0273 393.2875,618.293 Q392.8031,618.543 392.4281,619.1211 Q392.0531,619.6836 392.0531,620.4648 L392.0531,621.3086 Q392.0531,622.2461 392.7406,622.8867 Q393.4281,623.5117 394.6313,623.5117 Q395.3656,623.5117 395.8656,623.3086 Q396.1469,623.1992 396.475,622.8555 Q396.6781,622.6523 396.7875,622.6055 Q396.9125,622.543 397.0531,622.543 Q397.3188,622.543 397.5063,622.7461 Q397.7094,622.9336 397.7094,623.1992 Q397.7094,623.4648 397.4438,623.7773 Q397.0531,624.2148 396.4438,624.4648 Q395.6313,624.8086 394.6469,624.8086 Q393.4906,624.8086 392.5531,624.3398 Q391.8031,623.9492 391.2719,623.1367 Q390.7563,622.3086 390.7563,621.3398 L390.7563,620.4492 Q390.7563,619.4336 391.225,618.5586 Q391.7094,617.6836 392.5375,617.2148 Q393.3813,616.7305 394.3188,616.7305 Q394.8813,616.7305 395.3656,616.8711 Q395.8656,616.9961 396.2875,617.2617 Z " fill="#000000"/><text fill="#000000" font-family="Segoe UI" font-size="13" lengthAdjust="spacing" textLength="123" x="411.65" y="626.0039">PasswordResetToken</text><line style="stroke:#6E879D;stroke-width:0.5;" x1="367.5" x2="551.5" y1="635.6211" y2="635.6211"/><text fill="#000000" font-family="Segoe UI" font-size="13" lengthAdjust="spacing" textLength="174" x="372.5" y="653.6494">+id_password_reset_token: int</text><text fill="#000000" font-family="Segoe UI" font-size="13" lengthAdjust="spacing" textLength="89" x="372.5" y="670.9404">+id_usuario: int</text><text fill="#000000" font-family="Segoe UI" font-size="13" lengthAdjust="spacing" textLength="113" x="372.5" y="688.2314">+token_hash: string</text><text fill="#000000" font-family="Segoe UI" font-size="13" lengthAdjust="spacing" textLength="145" x="372.5" y="705.5225">+expires_at: timestamptz</text><text fill="#000000" font-family="Segoe UI" font-size="13" lengthAdjust="spacing" textLength="169" x="372.5" y="722.8135">+consumed_at?: timestamptz</text><text fill="#000000" font-family="Segoe UI" font-size="13" lengthAdjust="spacing" textLength="147" x="372.5" y="740.1045">+created_at: timestamptz</text></g><!--class TipoHabito--><g id="elem_TipoHabito"><rect codeLine="50" fill="#FFFFFF" height="89.873" id="TipoHabito" rx="6" ry="6" style="stroke:#6E879D;stroke-width:0.5;" width="128" x="395.5" y="1673.6211"/><ellipse cx="424.35" cy="1688.6211" fill="#ADD1B2" rx="10" ry="10" style="stroke:#181818;stroke-width:1.0;"/><path d="M425.2875,1685.2617 Q425.4125,1685.0898 425.5531,1685.0117 Q425.6938,1684.9336 425.8656,1684.9336 Q426.1469,1684.9336 426.3188,1685.1367 Q426.5063,1685.3242 426.5063,1685.793 L426.5063,1686.9023 Q426.5063,1687.3711 426.3188,1687.5742 Q426.1469,1687.7617 425.8656,1687.7617 Q425.6,1687.7617 425.4438,1687.6211 Q425.2875,1687.4805 425.2094,1687.0742 Q425.1625,1686.8086 425.0375,1686.668 Q424.7719,1686.3711 424.3031,1686.1992 Q423.8344,1686.0273 423.3656,1686.0273 Q422.7875,1686.0273 422.2875,1686.293 Q421.8031,1686.543 421.4281,1687.1211 Q421.0531,1687.6836 421.0531,1688.4648 L421.0531,1689.3086 Q421.0531,1690.2461 421.7406,1690.8867 Q422.4281,1691.5117 423.6313,1691.5117 Q424.3656,1691.5117 424.8656,1691.3086 Q425.1469,1691.1992 425.475,1690.8555 Q425.6781,1690.6523 425.7875,1690.6055 Q425.9125,1690.543 426.0531,1690.543 Q426.3188,1690.543 426.5063,1690.7461 Q426.7094,1690.9336 426.7094,1691.1992 Q426.7094,1691.4648 426.4438,1691.7773 Q426.0531,1692.2148 425.4438,1692.4648 Q424.6313,1692.8086 423.6469,1692.8086 Q422.4906,1692.8086 421.5531,1692.3398 Q420.8031,1691.9492 420.2719,1691.1367 Q419.7563,1690.3086 419.7563,1689.3398 L419.7563,1688.4492 Q419.7563,1687.4336 420.225,1686.5586 Q420.7094,1685.6836 421.5375,1685.2148 Q422.3813,1684.7305 423.3188,1684.7305 Q423.8813,1684.7305 424.3656,1684.8711 Q424.8656,1684.9961 425.2875,1685.2617 Z " fill="#000000"/><text fill="#000000" font-family="Segoe UI" font-size="13" lengthAdjust="spacing" textLength="65" x="440.65" y="1694.0039">TipoHabito</text><line style="stroke:#6E879D;stroke-width:0.5;" x1="396.5" x2="522.5" y1="1703.6211" y2="1703.6211"/><text fill="#000000" font-family="Segoe UI" font-size="13" lengthAdjust="spacing" textLength="111" x="401.5" y="1721.6494">+id_tipo_habito: int</text><text fill="#000000" font-family="Segoe UI" font-size="13" lengthAdjust="spacing" textLength="95" x="401.5" y="1738.9404">+nombre: string</text><text fill="#000000" font-family="Segoe UI" font-size="13" lengthAdjust="spacing" textLength="116" x="401.5" y="1756.2314">+descripcion: string</text></g><!--class RegistroHabito--><g id="elem_RegistroHabito"><rect codeLine="56" fill="#FFFFFF" height="176.3281" id="RegistroHabito" rx="6" ry="6" style="stroke:#6E879D;stroke-width:0.5;" width="158" x="746.5" y="1673.6211"/><ellipse cx="778.5" cy="1688.6211" fill="#ADD1B2" rx="10" ry="10" style="stroke:#181818;stroke-width:1.0;"/><path d="M779.4375,1685.2617 Q779.5625,1685.0898 779.7031,1685.0117 Q779.8438,1684.9336 780.0156,1684.9336 Q780.2969,1684.9336 780.4688,1685.1367 Q780.6563,1685.3242 780.6563,1685.793 L780.6563,1686.9023 Q780.6563,1687.3711 780.4688,1687.5742 Q780.2969,1687.7617 780.0156,1687.7617 Q779.75,1687.7617 779.5938,1687.6211 Q779.4375,1687.4805 779.3594,1687.0742 Q779.3125,1686.8086 779.1875,1686.668 Q778.9219,1686.3711 778.4531,1686.1992 Q777.9844,1686.0273 777.5156,1686.0273 Q776.9375,1686.0273 776.4375,1686.293 Q775.9531,1686.543 775.5781,1687.1211 Q775.2031,1687.6836 775.2031,1688.4648 L775.2031,1689.3086 Q775.2031,1690.2461 775.8906,1690.8867 Q776.5781,1691.5117 777.7813,1691.5117 Q778.5156,1691.5117 779.0156,1691.3086 Q779.2969,1691.1992 779.625,1690.8555 Q779.8281,1690.6523 779.9375,1690.6055 Q780.0625,1690.543 780.2031,1690.543 Q780.4688,1690.543 780.6563,1690.7461 Q780.8594,1690.9336 780.8594,1691.1992 Q780.8594,1691.4648 780.5938,1691.7773 Q780.2031,1692.2148 779.5938,1692.4648 Q778.7813,1692.8086 777.7969,1692.8086 Q776.6406,1692.8086 775.7031,1692.3398 Q774.9531,1691.9492 774.4219,1691.1367 Q773.9063,1690.3086 773.9063,1689.3398 L773.9063,1688.4492 Q773.9063,1687.4336 774.375,1686.5586 Q774.8594,1685.6836 775.6875,1685.2148 Q776.5313,1684.7305 777.4688,1684.7305 Q778.0313,1684.7305 778.5156,1684.8711 Q779.0156,1684.9961 779.4375,1685.2617 Z " fill="#000000"/><text fill="#000000" font-family="Segoe UI" font-size="13" lengthAdjust="spacing" textLength="88" x="795.5" y="1694.0039">RegistroHabito</text><line style="stroke:#6E879D;stroke-width:0.5;" x1="747.5" x2="903.5" y1="1703.6211" y2="1703.6211"/><text fill="#000000" font-family="Segoe UI" font-size="13" lengthAdjust="spacing" textLength="134" x="752.5" y="1721.6494">+id_registro_habito: int</text><text fill="#000000" font-family="Segoe UI" font-size="13" lengthAdjust="spacing" textLength="89" x="752.5" y="1738.9404">+id_usuario: int</text><text fill="#000000" font-family="Segoe UI" font-size="13" lengthAdjust="spacing" textLength="111" x="752.5" y="1756.2314">+id_tipo_habito: int</text><text fill="#000000" font-family="Segoe UI" font-size="13" lengthAdjust="spacing" textLength="142" x="752.5" y="1773.5225">+f_registro: timestamptz</text><text fill="#000000" font-family="Segoe UI" font-size="13" lengthAdjust="spacing" textLength="90" x="752.5" y="1790.8135">+valor: decimal</text><text fill="#000000" font-family="Segoe UI" font-size="13" lengthAdjust="spacing" textLength="95" x="752.5" y="1808.1045">+unidad?: string</text><text fill="#000000" font-family="Segoe UI" font-size="13" lengthAdjust="spacing" textLength="87" x="752.5" y="1825.3955">+notas?: string</text><text fill="#000000" font-family="Segoe UI" font-size="13" lengthAdjust="spacing" textLength="146" x="752.5" y="1842.6865">+id_registro_comida?: int</text></g><!--class Alimento--><g id="elem_Alimento"><rect codeLine="67" fill="#FFFFFF" height="159.0371" id="Alimento" rx="6" ry="6" style="stroke:#6E879D;stroke-width:0.5;" width="174" x="72" y="1799.1211"/><ellipse cx="129.5" cy="1814.1211" fill="#ADD1B2" rx="10" ry="10" style="stroke:#181818;stroke-width:1.0;"/><path d="M130.4375,1810.7617 Q130.5625,1810.5898 130.7031,1810.5117 Q130.8438,1810.4336 131.0156,1810.4336 Q131.2969,1810.4336 131.4688,1810.6367 Q131.6563,1810.8242 131.6563,1811.293 L131.6563,1812.4023 Q131.6563,1812.8711 131.4688,1813.0742 Q131.2969,1813.2617 131.0156,1813.2617 Q130.75,1813.2617 130.5938,1813.1211 Q130.4375,1812.9805 130.3594,1812.5742 Q130.3125,1812.3086 130.1875,1812.168 Q129.9219,1811.8711 129.4531,1811.6992 Q128.9844,1811.5273 128.5156,1811.5273 Q127.9375,1811.5273 127.4375,1811.793 Q126.9531,1812.043 126.5781,1812.6211 Q126.2031,1813.1836 126.2031,1813.9648 L126.2031,1814.8086 Q126.2031,1815.7461 126.8906,1816.3867 Q127.5781,1817.0117 128.7813,1817.0117 Q129.5156,1817.0117 130.0156,1816.8086 Q130.2969,1816.6992 130.625,1816.3555 Q130.8281,1816.1523 130.9375,1816.1055 Q131.0625,1816.043 131.2031,1816.043 Q131.4688,1816.043 131.6563,1816.2461 Q131.8594,1816.4336 131.8594,1816.6992 Q131.8594,1816.9648 131.5938,1817.2773 Q131.2031,1817.7148 130.5938,1817.9648 Q129.7813,1818.3086 128.7969,1818.3086 Q127.6406,1818.3086 126.7031,1817.8398 Q125.9531,1817.4492 125.4219,1816.6367 Q124.9063,1815.8086 124.9063,1814.8398 L124.9063,1813.9492 Q124.9063,1812.9336 125.375,1812.0586 Q125.8594,1811.1836 126.6875,1810.7148 Q127.5313,1810.2305 128.4688,1810.2305 Q129.0313,1810.2305 129.5156,1810.3711 Q130.0156,1810.4961 130.4375,1810.7617 Z " fill="#000000"/><text fill="#000000" font-family="Segoe UI" font-size="13" lengthAdjust="spacing" textLength="51" x="148.5" y="1819.5039">Alimento</text><line style="stroke:#6E879D;stroke-width:0.5;" x1="73" x2="245" y1="1829.1211" y2="1829.1211"/><text fill="#000000" font-family="Segoe UI" font-size="13" lengthAdjust="spacing" textLength="96" x="78" y="1847.1494">+id_alimento: int</text><text fill="#000000" font-family="Segoe UI" font-size="13" lengthAdjust="spacing" textLength="95" x="78" y="1864.4404">+nombre: string</text><text fill="#000000" font-family="Segoe UI" font-size="13" lengthAdjust="spacing" textLength="83" x="78" y="1881.7314">+kcal: decimal</text><text fill="#000000" font-family="Segoe UI" font-size="13" lengthAdjust="spacing" textLength="129" x="78" y="1899.0225">+proteina_g?: decimal</text><text fill="#000000" font-family="Segoe UI" font-size="13" lengthAdjust="spacing" textLength="162" x="78" y="1916.3135">+carbohidratos_g?: decimal</text><text fill="#000000" font-family="Segoe UI" font-size="13" lengthAdjust="spacing" textLength="119" x="78" y="1933.6045">+grasas_g?: decimal</text><text fill="#000000" font-family="Segoe UI" font-size="13" lengthAdjust="spacing" textLength="91" x="78" y="1950.8955">+fuente?: string</text></g><!--class RegistroComida--><g id="elem_RegistroComida"><rect codeLine="77" fill="#FFFFFF" height="159.0371" id="RegistroComida" rx="6" ry="6" style="stroke:#6E879D;stroke-width:0.5;" width="165" x="377" y="1799.1211"/><ellipse cx="409.45" cy="1814.1211" fill="#ADD1B2" rx="10" ry="10" style="stroke:#181818;stroke-width:1.0;"/><path d="M410.3875,1810.7617 Q410.5125,1810.5898 410.6531,1810.5117 Q410.7938,1810.4336 410.9656,1810.4336 Q411.2469,1810.4336 411.4188,1810.6367 Q411.6063,1810.8242 411.6063,1811.293 L411.6063,1812.4023 Q411.6063,1812.8711 411.4188,1813.0742 Q411.2469,1813.2617 410.9656,1813.2617 Q410.7,1813.2617 410.5438,1813.1211 Q410.3875,1812.9805 410.3094,1812.5742 Q410.2625,1812.3086 410.1375,1812.168 Q409.8719,1811.8711 409.4031,1811.6992 Q408.9344,1811.5273 408.4656,1811.5273 Q407.8875,1811.5273 407.3875,1811.793 Q406.9031,1812.043 406.5281,1812.6211 Q406.1531,1813.1836 406.1531,1813.9648 L406.1531,1814.8086 Q406.1531,1815.7461 406.8406,1816.3867 Q407.5281,1817.0117 408.7313,1817.0117 Q409.4656,1817.0117 409.9656,1816.8086 Q410.2469,1816.6992 410.575,1816.3555 Q410.7781,1816.1523 410.8875,1816.1055 Q411.0125,1816.043 411.1531,1816.043 Q411.4188,1816.043 411.6063,1816.2461 Q411.8094,1816.4336 411.8094,1816.6992 Q411.8094,1816.9648 411.5438,1817.2773 Q411.1531,1817.7148 410.5438,1817.9648 Q409.7313,1818.3086 408.7469,1818.3086 Q407.5906,1818.3086 406.6531,1817.8398 Q405.9031,1817.4492 405.3719,1816.6367 Q404.8563,1815.8086 404.8563,1814.8398 L404.8563,1813.9492 Q404.8563,1812.9336 405.325,1812.0586 Q405.8094,1811.1836 406.6375,1810.7148 Q407.4813,1810.2305 408.4188,1810.2305 Q408.9813,1810.2305 409.4656,1810.3711 Q409.9656,1810.4961 410.3875,1810.7617 Z " fill="#000000"/><text fill="#000000" font-family="Segoe UI" font-size="13" lengthAdjust="spacing" textLength="94" x="426.55" y="1819.5039">RegistroComida</text><line style="stroke:#6E879D;stroke-width:0.5;" x1="378" x2="541" y1="1829.1211" y2="1829.1211"/><text fill="#000000" font-family="Segoe UI" font-size="13" lengthAdjust="spacing" textLength="140" x="383" y="1847.1494">+id_registro_comida: int</text><text fill="#000000" font-family="Segoe UI" font-size="13" lengthAdjust="spacing" textLength="89" x="383" y="1864.4404">+id_usuario: int</text><text fill="#000000" font-family="Segoe UI" font-size="13" lengthAdjust="spacing" textLength="142" x="383" y="1881.7314">+f_registro: timestamptz</text><text fill="#000000" font-family="Segoe UI" font-size="13" lengthAdjust="spacing" textLength="119" x="383" y="1899.0225">+tipo_comida: enum</text><text fill="#000000" font-family="Segoe UI" font-size="13" lengthAdjust="spacing" textLength="153" x="383" y="1916.3135">+nombre_snapshot: string</text><text fill="#000000" font-family="Segoe UI" font-size="13" lengthAdjust="spacing" textLength="83" x="383" y="1933.6045">+kcal: decimal</text><text fill="#000000" font-family="Segoe UI" font-size="13" lengthAdjust="spacing" textLength="102" x="383" y="1950.8955">+id_alimento?: int</text></g><!--class ConfiguracionNotificaciones--><g id="elem_ConfiguracionNotificaciones"><rect codeLine="91" fill="#FFFFFF" height="141.7461" id="ConfiguracionNotificaciones" rx="6" ry="6" style="stroke:#6E879D;stroke-width:0.5;" width="307" x="306" y="90.6211"/><ellipse cx="374" cy="105.6211" fill="#ADD1B2" rx="10" ry="10" style="stroke:#181818;stroke-width:1.0;"/><path d="M374.9375,102.2617 Q375.0625,102.0898 375.2031,102.0117 Q375.3438,101.9336 375.5156,101.9336 Q375.7969,101.9336 375.9688,102.1367 Q376.1563,102.3242 376.1563,102.793 L376.1563,103.9023 Q376.1563,104.3711 375.9688,104.5742 Q375.7969,104.7617 375.5156,104.7617 Q375.25,104.7617 375.0938,104.6211 Q374.9375,104.4805 374.8594,104.0742 Q374.8125,103.8086 374.6875,103.668 Q374.4219,103.3711 373.9531,103.1992 Q373.4844,103.0273 373.0156,103.0273 Q372.4375,103.0273 371.9375,103.293 Q371.4531,103.543 371.0781,104.1211 Q370.7031,104.6836 370.7031,105.4648 L370.7031,106.3086 Q370.7031,107.2461 371.3906,107.8867 Q372.0781,108.5117 373.2813,108.5117 Q374.0156,108.5117 374.5156,108.3086 Q374.7969,108.1992 375.125,107.8555 Q375.3281,107.6523 375.4375,107.6055 Q375.5625,107.543 375.7031,107.543 Q375.9688,107.543 376.1563,107.7461 Q376.3594,107.9336 376.3594,108.1992 Q376.3594,108.4648 376.0938,108.7773 Q375.7031,109.2148 375.0938,109.4648 Q374.2813,109.8086 373.2969,109.8086 Q372.1406,109.8086 371.2031,109.3398 Q370.4531,108.9492 369.9219,108.1367 Q369.4063,107.3086 369.4063,106.3398 L369.4063,105.4492 Q369.4063,104.4336 369.875,103.5586 Q370.3594,102.6836 371.1875,102.2148 Q372.0313,101.7305 372.9688,101.7305 Q373.5313,101.7305 374.0156,101.8711 Q374.5156,101.9961 374.9375,102.2617 Z " fill="#000000"/><text fill="#000000" font-family="Segoe UI" font-size="13" lengthAdjust="spacing" textLength="163" x="393" y="111.0039">ConfiguracionNotificaciones</text><line style="stroke:#6E879D;stroke-width:0.5;" x1="307" x2="612" y1="120.6211" y2="120.6211"/><text fill="#000000" font-family="Segoe UI" font-size="13" lengthAdjust="spacing" textLength="111" x="312" y="138.6494">+enabled: boolean</text><text fill="#000000" font-family="Segoe UI" font-size="13" lengthAdjust="spacing" textLength="142" x="312" y="155.9404">+summaryTime: HH:MM</text><text fill="#000000" font-family="Segoe UI" font-size="13" lengthAdjust="spacing" textLength="175" x="312" y="173.2314">+quietHoursEnabled: boolean</text><text fill="#000000" font-family="Segoe UI" font-size="13" lengthAdjust="spacing" textLength="120" x="312" y="190.5225">+quietFrom: HH:MM</text><text fill="#000000" font-family="Segoe UI" font-size="13" lengthAdjust="spacing" textLength="105" x="312" y="207.8135">+quietTo: HH:MM</text><text fill="#000000" font-family="Segoe UI" font-size="13" lengthAdjust="spacing" textLength="295" x="312" y="225.1045">+source: usuario.preferencias.notificaciones.global</text></g><!--class ConfiguracionAvisoHabito--><g id="elem_ConfiguracionAvisoHabito"><rect codeLine="100" fill="#FFFFFF" height="107.1641" id="ConfiguracionAvisoHabito" rx="6" ry="6" style="stroke:#6E879D;stroke-width:0.5;" width="305" x="673" y="257.1211"/><ellipse cx="746" cy="272.1211" fill="#ADD1B2" rx="10" ry="10" style="stroke:#181818;stroke-width:1.0;"/><path d="M746.9375,268.7617 Q747.0625,268.5898 747.2031,268.5117 Q747.3438,268.4336 747.5156,268.4336 Q747.7969,268.4336 747.9688,268.6367 Q748.1563,268.8242 748.1563,269.293 L748.1563,270.4023 Q748.1563,270.8711 747.9688,271.0742 Q747.7969,271.2617 747.5156,271.2617 Q747.25,271.2617 747.0938,271.1211 Q746.9375,270.9805 746.8594,270.5742 Q746.8125,270.3086 746.6875,270.168 Q746.4219,269.8711 745.9531,269.6992 Q745.4844,269.5273 745.0156,269.5273 Q744.4375,269.5273 743.9375,269.793 Q743.4531,270.043 743.0781,270.6211 Q742.7031,271.1836 742.7031,271.9648 L742.7031,272.8086 Q742.7031,273.7461 743.3906,274.3867 Q744.0781,275.0117 745.2813,275.0117 Q746.0156,275.0117 746.5156,274.8086 Q746.7969,274.6992 747.125,274.3555 Q747.3281,274.1523 747.4375,274.1055 Q747.5625,274.043 747.7031,274.043 Q747.9688,274.043 748.1563,274.2461 Q748.3594,274.4336 748.3594,274.6992 Q748.3594,274.9648 748.0938,275.2773 Q747.7031,275.7148 747.0938,275.9648 Q746.2813,276.3086 745.2969,276.3086 Q744.1406,276.3086 743.2031,275.8398 Q742.4531,275.4492 741.9219,274.6367 Q741.4063,273.8086 741.4063,272.8398 L741.4063,271.9492 Q741.4063,270.9336 741.875,270.0586 Q742.3594,269.1836 743.1875,268.7148 Q744.0313,268.2305 744.9688,268.2305 Q745.5313,268.2305 746.0156,268.3711 Q746.5156,268.4961 746.9375,268.7617 Z " fill="#000000"/><text fill="#000000" font-family="Segoe UI" font-size="13" lengthAdjust="spacing" textLength="151" x="765" y="277.5039">ConfiguracionAvisoHabito</text><line style="stroke:#6E879D;stroke-width:0.5;" x1="674" x2="977" y1="287.1211" y2="287.1211"/><text fill="#000000" font-family="Segoe UI" font-size="13" lengthAdjust="spacing" textLength="111" x="679" y="305.1494">+enabled: boolean</text><text fill="#000000" font-family="Segoe UI" font-size="13" lengthAdjust="spacing" textLength="86" x="679" y="322.4404">+time: HH:MM</text><text fill="#000000" font-family="Segoe UI" font-size="13" lengthAdjust="spacing" textLength="213" x="679" y="339.7314">+lastCompletedDate?: YYYY-MM-DD</text><text fill="#000000" font-family="Segoe UI" font-size="13" lengthAdjust="spacing" textLength="293" x="679" y="357.0225">+source: usuario.preferencias.notificaciones.habits</text></g><!--class Notificacion--><g id="elem_Notificacion"><rect codeLine="108" fill="#FFFFFF" height="245.4922" id="Notificacion" rx="6" ry="6" style="stroke:#6E879D;stroke-width:0.5;" width="188" x="365.5" y="268.1211"/><ellipse cx="421" cy="283.1211" fill="#ADD1B2" rx="10" ry="10" style="stroke:#181818;stroke-width:1.0;"/><path d="M421.9375,279.7617 Q422.0625,279.5898 422.2031,279.5117 Q422.3438,279.4336 422.5156,279.4336 Q422.7969,279.4336 422.9688,279.6367 Q423.1563,279.8242 423.1563,280.293 L423.1563,281.4023 Q423.1563,281.8711 422.9688,282.0742 Q422.7969,282.2617 422.5156,282.2617 Q422.25,282.2617 422.0938,282.1211 Q421.9375,281.9805 421.8594,281.5742 Q421.8125,281.3086 421.6875,281.168 Q421.4219,280.8711 420.9531,280.6992 Q420.4844,280.5273 420.0156,280.5273 Q419.4375,280.5273 418.9375,280.793 Q418.4531,281.043 418.0781,281.6211 Q417.7031,282.1836 417.7031,282.9648 L417.7031,283.8086 Q417.7031,284.7461 418.3906,285.3867 Q419.0781,286.0117 420.2813,286.0117 Q421.0156,286.0117 421.5156,285.8086 Q421.7969,285.6992 422.125,285.3555 Q422.3281,285.1523 422.4375,285.1055 Q422.5625,285.043 422.7031,285.043 Q422.9688,285.043 423.1563,285.2461 Q423.3594,285.4336 423.3594,285.6992 Q423.3594,285.9648 423.0938,286.2773 Q422.7031,286.7148 422.0938,286.9648 Q421.2813,287.3086 420.2969,287.3086 Q419.1406,287.3086 418.2031,286.8398 Q417.4531,286.4492 416.9219,285.6367 Q416.4063,284.8086 416.4063,283.8398 L416.4063,282.9492 Q416.4063,281.9336 416.875,281.0586 Q417.3594,280.1836 418.1875,279.7148 Q419.0313,279.2305 419.9688,279.2305 Q420.5313,279.2305 421.0156,279.3711 Q421.5156,279.4961 421.9375,279.7617 Z " fill="#000000"/><text fill="#000000" font-family="Segoe UI" font-size="13" lengthAdjust="spacing" textLength="69" x="440" y="288.5039">Notificacion</text><line style="stroke:#6E879D;stroke-width:0.5;" x1="366.5" x2="552.5" y1="298.1211" y2="298.1211"/><text fill="#000000" font-family="Segoe UI" font-size="13" lengthAdjust="spacing" textLength="112" x="371.5" y="316.1494">+id_notificacion: int</text><text fill="#000000" font-family="Segoe UI" font-size="13" lengthAdjust="spacing" textLength="89" x="371.5" y="333.4404">+id_usuario: int</text><text fill="#000000" font-family="Segoe UI" font-size="13" lengthAdjust="spacing" textLength="78" x="371.5" y="350.7314">+titulo: string</text><text fill="#000000" font-family="Segoe UI" font-size="13" lengthAdjust="spacing" textLength="90" x="371.5" y="368.0225">+cuerpo: string</text><text fill="#000000" font-family="Segoe UI" font-size="13" lengthAdjust="spacing" textLength="71" x="371.5" y="385.3135">+tipo: enum</text><text fill="#000000" font-family="Segoe UI" font-size="13" lengthAdjust="spacing" textLength="92" x="371.5" y="402.6045">+leida: boolean</text><text fill="#000000" font-family="Segoe UI" font-size="13" lengthAdjust="spacing" textLength="176" x="371.5" y="419.8955">+f_programada?: timestamptz</text><text fill="#000000" font-family="Segoe UI" font-size="13" lengthAdjust="spacing" textLength="130" x="371.5" y="437.1865">+f_leida?: timestamptz</text><text fill="#000000" font-family="Segoe UI" font-size="13" lengthAdjust="spacing" textLength="95" x="371.5" y="454.4775">+estado?: string</text><text fill="#000000" font-family="Segoe UI" font-size="13" lengthAdjust="spacing" textLength="109" x="371.5" y="471.7686">+deep_link?: string</text><text fill="#000000" font-family="Segoe UI" font-size="13" lengthAdjust="spacing" textLength="147" x="371.5" y="489.0596">+created_at: timestamptz</text><text fill="#000000" font-family="Segoe UI" font-size="13" lengthAdjust="spacing" textLength="152" x="371.5" y="506.3506">+updated_at: timestamptz</text></g><!--class TicketSoporte--><g id="elem_TicketSoporte"><rect codeLine="126" fill="#FFFFFF" height="176.3281" id="TicketSoporte" rx="6" ry="6" style="stroke:#6E879D;stroke-width:0.5;" width="157" x="381" y="831.6211"/><ellipse cx="416.15" cy="846.6211" fill="#ADD1B2" rx="10" ry="10" style="stroke:#181818;stroke-width:1.0;"/><path d="M417.0875,843.2617 Q417.2125,843.0898 417.3531,843.0117 Q417.4938,842.9336 417.6656,842.9336 Q417.9469,842.9336 418.1188,843.1367 Q418.3063,843.3242 418.3063,843.793 L418.3063,844.9023 Q418.3063,845.3711 418.1188,845.5742 Q417.9469,845.7617 417.6656,845.7617 Q417.4,845.7617 417.2438,845.6211 Q417.0875,845.4805 417.0094,845.0742 Q416.9625,844.8086 416.8375,844.668 Q416.5719,844.3711 416.1031,844.1992 Q415.6344,844.0273 415.1656,844.0273 Q414.5875,844.0273 414.0875,844.293 Q413.6031,844.543 413.2281,845.1211 Q412.8531,845.6836 412.8531,846.4648 L412.8531,847.3086 Q412.8531,848.2461 413.5406,848.8867 Q414.2281,849.5117 415.4313,849.5117 Q416.1656,849.5117 416.6656,849.3086 Q416.9469,849.1992 417.275,848.8555 Q417.4781,848.6523 417.5875,848.6055 Q417.7125,848.543 417.8531,848.543 Q418.1188,848.543 418.3063,848.7461 Q418.5094,848.9336 418.5094,849.1992 Q418.5094,849.4648 418.2438,849.7773 Q417.8531,850.2148 417.2438,850.4648 Q416.4313,850.8086 415.4469,850.8086 Q414.2906,850.8086 413.3531,850.3398 Q412.6031,849.9492 412.0719,849.1367 Q411.5563,848.3086 411.5563,847.3398 L411.5563,846.4492 Q411.5563,845.4336 412.025,844.5586 Q412.5094,843.6836 413.3375,843.2148 Q414.1813,842.7305 415.1188,842.7305 Q415.6813,842.7305 416.1656,842.8711 Q416.6656,842.9961 417.0875,843.2617 Z " fill="#000000"/><text fill="#000000" font-family="Segoe UI" font-size="13" lengthAdjust="spacing" textLength="80" x="433.85" y="852.0039">TicketSoporte</text><line style="stroke:#6E879D;stroke-width:0.5;" x1="382" x2="537" y1="861.6211" y2="861.6211"/><text fill="#000000" font-family="Segoe UI" font-size="13" lengthAdjust="spacing" textLength="76" x="387" y="879.6494">+id_ticket: int</text><text fill="#000000" font-family="Segoe UI" font-size="13" lengthAdjust="spacing" textLength="89" x="387" y="896.9404">+id_usuario: int</text><text fill="#000000" font-family="Segoe UI" font-size="13" lengthAdjust="spacing" textLength="88" x="387" y="914.2314">+asunto: string</text><text fill="#000000" font-family="Segoe UI" font-size="13" lengthAdjust="spacing" textLength="116" x="387" y="931.5225">+descripcion: string</text><text fill="#000000" font-family="Segoe UI" font-size="13" lengthAdjust="spacing" textLength="71" x="387" y="948.8135">+tipo: enum</text><text fill="#000000" font-family="Segoe UI" font-size="13" lengthAdjust="spacing" textLength="88" x="387" y="966.1045">+estado: enum</text><text fill="#000000" font-family="Segoe UI" font-size="13" lengthAdjust="spacing" textLength="141" x="387" y="983.3955">+contacto_email?: string</text><text fill="#000000" font-family="Segoe UI" font-size="13" lengthAdjust="spacing" textLength="145" x="387" y="1000.6865">+f_creacion: timestamptz</text></g><!--class Logro--><g id="elem_Logro"><rect codeLine="140" fill="#FFFFFF" height="124.4551" id="Logro" rx="6" ry="6" style="stroke:#6E879D;stroke-width:0.5;" width="128" x="761.5" y="857.6211"/><ellipse cx="804" cy="872.6211" fill="#ADD1B2" rx="10" ry="10" style="stroke:#181818;stroke-width:1.0;"/><path d="M804.9375,869.2617 Q805.0625,869.0898 805.2031,869.0117 Q805.3438,868.9336 805.5156,868.9336 Q805.7969,868.9336 805.9688,869.1367 Q806.1563,869.3242 806.1563,869.793 L806.1563,870.9023 Q806.1563,871.3711 805.9688,871.5742 Q805.7969,871.7617 805.5156,871.7617 Q805.25,871.7617 805.0938,871.6211 Q804.9375,871.4805 804.8594,871.0742 Q804.8125,870.8086 804.6875,870.668 Q804.4219,870.3711 803.9531,870.1992 Q803.4844,870.0273 803.0156,870.0273 Q802.4375,870.0273 801.9375,870.293 Q801.4531,870.543 801.0781,871.1211 Q800.7031,871.6836 800.7031,872.4648 L800.7031,873.3086 Q800.7031,874.2461 801.3906,874.8867 Q802.0781,875.5117 803.2813,875.5117 Q804.0156,875.5117 804.5156,875.3086 Q804.7969,875.1992 805.125,874.8555 Q805.3281,874.6523 805.4375,874.6055 Q805.5625,874.543 805.7031,874.543 Q805.9688,874.543 806.1563,874.7461 Q806.3594,874.9336 806.3594,875.1992 Q806.3594,875.4648 806.0938,875.7773 Q805.7031,876.2148 805.0938,876.4648 Q804.2813,876.8086 803.2969,876.8086 Q802.1406,876.8086 801.2031,876.3398 Q800.4531,875.9492 799.9219,875.1367 Q799.4063,874.3086 799.4063,873.3398 L799.4063,872.4492 Q799.4063,871.4336 799.875,870.5586 Q800.3594,869.6836 801.1875,869.2148 Q802.0313,868.7305 802.9688,868.7305 Q803.5313,868.7305 804.0156,868.8711 Q804.5156,868.9961 804.9375,869.2617 Z " fill="#000000"/><text fill="#000000" font-family="Segoe UI" font-size="13" lengthAdjust="spacing" textLength="35" x="823" y="878.0039">Logro</text><line style="stroke:#6E879D;stroke-width:0.5;" x1="762.5" x2="888.5" y1="887.6211" y2="887.6211"/><text fill="#000000" font-family="Segoe UI" font-size="13" lengthAdjust="spacing" textLength="78" x="767.5" y="905.6494">+id_logro: int</text><text fill="#000000" font-family="Segoe UI" font-size="13" lengthAdjust="spacing" textLength="95" x="767.5" y="922.9404">+nombre: string</text><text fill="#000000" font-family="Segoe UI" font-size="13" lengthAdjust="spacing" textLength="116" x="767.5" y="940.2314">+descripcion: string</text><text fill="#000000" font-family="Segoe UI" font-size="13" lengthAdjust="spacing" textLength="89" x="767.5" y="957.5225">+criterio: jsonb</text><text fill="#000000" font-family="Segoe UI" font-size="13" lengthAdjust="spacing" textLength="70" x="767.5" y="974.8135">+puntos: int</text></g><!--class UsuarioLogro--><g id="elem_UsuarioLogro"><rect codeLine="148" fill="#FFFFFF" height="124.4551" id="UsuarioLogro" rx="6" ry="6" style="stroke:#6E879D;stroke-width:0.5;" width="166" x="1040" y="857.6211"/><ellipse cx="1079.2" cy="872.6211" fill="#ADD1B2" rx="10" ry="10" style="stroke:#181818;stroke-width:1.0;"/><path d="M1080.1375,869.2617 Q1080.2625,869.0898 1080.4031,869.0117 Q1080.5438,868.9336 1080.7156,868.9336 Q1080.9969,868.9336 1081.1688,869.1367 Q1081.3563,869.3242 1081.3563,869.793 L1081.3563,870.9023 Q1081.3563,871.3711 1081.1688,871.5742 Q1080.9969,871.7617 1080.7156,871.7617 Q1080.45,871.7617 1080.2938,871.6211 Q1080.1375,871.4805 1080.0594,871.0742 Q1080.0125,870.8086 1079.8875,870.668 Q1079.6219,870.3711 1079.1531,870.1992 Q1078.6844,870.0273 1078.2156,870.0273 Q1077.6375,870.0273 1077.1375,870.293 Q1076.6531,870.543 1076.2781,871.1211 Q1075.9031,871.6836 1075.9031,872.4648 L1075.9031,873.3086 Q1075.9031,874.2461 1076.5906,874.8867 Q1077.2781,875.5117 1078.4813,875.5117 Q1079.2156,875.5117 1079.7156,875.3086 Q1079.9969,875.1992 1080.325,874.8555 Q1080.5281,874.6523 1080.6375,874.6055 Q1080.7625,874.543 1080.9031,874.543 Q1081.1688,874.543 1081.3563,874.7461 Q1081.5594,874.9336 1081.5594,875.1992 Q1081.5594,875.4648 1081.2938,875.7773 Q1080.9031,876.2148 1080.2938,876.4648 Q1079.4813,876.8086 1078.4969,876.8086 Q1077.3406,876.8086 1076.4031,876.3398 Q1075.6531,875.9492 1075.1219,875.1367 Q1074.6063,874.3086 1074.6063,873.3398 L1074.6063,872.4492 Q1074.6063,871.4336 1075.075,870.5586 Q1075.5594,869.6836 1076.3875,869.2148 Q1077.2313,868.7305 1078.1688,868.7305 Q1078.7313,868.7305 1079.2156,868.8711 Q1079.7156,868.9961 1080.1375,869.2617 Z " fill="#000000"/><text fill="#000000" font-family="Segoe UI" font-size="13" lengthAdjust="spacing" textLength="80" x="1097.8" y="878.0039">UsuarioLogro</text><line style="stroke:#6E879D;stroke-width:0.5;" x1="1041" x2="1205" y1="887.6211" y2="887.6211"/><text fill="#000000" font-family="Segoe UI" font-size="13" lengthAdjust="spacing" textLength="126" x="1046" y="905.6494">+id_usuario_logro: int</text><text fill="#000000" font-family="Segoe UI" font-size="13" lengthAdjust="spacing" textLength="89" x="1046" y="922.9404">+id_usuario: int</text><text fill="#000000" font-family="Segoe UI" font-size="13" lengthAdjust="spacing" textLength="78" x="1046" y="940.2314">+id_logro: int</text><text fill="#000000" font-family="Segoe UI" font-size="13" lengthAdjust="spacing" textLength="154" x="1046" y="957.5225">+f_obtencion: timestamptz</text><text fill="#000000" font-family="Segoe UI" font-size="13" lengthAdjust="spacing" textLength="70" x="1046" y="974.8135">+puntos: int</text></g><!--class Reto--><g id="elem_Reto"><rect codeLine="156" fill="#FFFFFF" height="141.7461" id="Reto" rx="6" ry="6" style="stroke:#6E879D;stroke-width:0.5;" width="138" x="756.5" y="1016.6211"/><ellipse cx="808" cy="1031.6211" fill="#ADD1B2" rx="10" ry="10" style="stroke:#181818;stroke-width:1.0;"/><path d="M808.9375,1028.2617 Q809.0625,1028.0898 809.2031,1028.0117 Q809.3438,1027.9336 809.5156,1027.9336 Q809.7969,1027.9336 809.9688,1028.1367 Q810.1563,1028.3242 810.1563,1028.793 L810.1563,1029.9023 Q810.1563,1030.3711 809.9688,1030.5742 Q809.7969,1030.7617 809.5156,1030.7617 Q809.25,1030.7617 809.0938,1030.6211 Q808.9375,1030.4805 808.8594,1030.0742 Q808.8125,1029.8086 808.6875,1029.668 Q808.4219,1029.3711 807.9531,1029.1992 Q807.4844,1029.0273 807.0156,1029.0273 Q806.4375,1029.0273 805.9375,1029.293 Q805.4531,1029.543 805.0781,1030.1211 Q804.7031,1030.6836 804.7031,1031.4648 L804.7031,1032.3086 Q804.7031,1033.2461 805.3906,1033.8867 Q806.0781,1034.5117 807.2813,1034.5117 Q808.0156,1034.5117 808.5156,1034.3086 Q808.7969,1034.1992 809.125,1033.8555 Q809.3281,1033.6523 809.4375,1033.6055 Q809.5625,1033.543 809.7031,1033.543 Q809.9688,1033.543 810.1563,1033.7461 Q810.3594,1033.9336 810.3594,1034.1992 Q810.3594,1034.4648 810.0938,1034.7773 Q809.7031,1035.2148 809.0938,1035.4648 Q808.2813,1035.8086 807.2969,1035.8086 Q806.1406,1035.8086 805.2031,1035.3398 Q804.4531,1034.9492 803.9219,1034.1367 Q803.4063,1033.3086 803.4063,1032.3398 L803.4063,1031.4492 Q803.4063,1030.4336 803.875,1029.5586 Q804.3594,1028.6836 805.1875,1028.2148 Q806.0313,1027.7305 806.9688,1027.7305 Q807.5313,1027.7305 808.0156,1027.8711 Q808.5156,1027.9961 808.9375,1028.2617 Z " fill="#000000"/><text fill="#000000" font-family="Segoe UI" font-size="13" lengthAdjust="spacing" textLength="27" x="827" y="1037.0039">Reto</text><line style="stroke:#6E879D;stroke-width:0.5;" x1="757.5" x2="893.5" y1="1046.6211" y2="1046.6211"/><text fill="#000000" font-family="Segoe UI" font-size="13" lengthAdjust="spacing" textLength="70" x="762.5" y="1064.6494">+id_reto: int</text><text fill="#000000" font-family="Segoe UI" font-size="13" lengthAdjust="spacing" textLength="95" x="762.5" y="1081.9404">+nombre: string</text><text fill="#000000" font-family="Segoe UI" font-size="13" lengthAdjust="spacing" textLength="116" x="762.5" y="1099.2314">+descripcion: string</text><text fill="#000000" font-family="Segoe UI" font-size="13" lengthAdjust="spacing" textLength="95" x="762.5" y="1116.5225">+objetivo: jsonb</text><text fill="#000000" font-family="Segoe UI" font-size="13" lengthAdjust="spacing" textLength="126" x="762.5" y="1133.8135">+f_inicio: timestamptz</text><text fill="#000000" font-family="Segoe UI" font-size="13" lengthAdjust="spacing" textLength="110" x="762.5" y="1151.1045">+f_fin: timestamptz</text></g><!--class UsuarioReto--><g id="elem_UsuarioReto"><rect codeLine="165" fill="#FFFFFF" height="141.7461" id="UsuarioReto" rx="6" ry="6" style="stroke:#6E879D;stroke-width:0.5;" width="170" x="1038" y="1016.6211"/><ellipse cx="1083" cy="1031.6211" fill="#ADD1B2" rx="10" ry="10" style="stroke:#181818;stroke-width:1.0;"/><path d="M1083.9375,1028.2617 Q1084.0625,1028.0898 1084.2031,1028.0117 Q1084.3438,1027.9336 1084.5156,1027.9336 Q1084.7969,1027.9336 1084.9688,1028.1367 Q1085.1563,1028.3242 1085.1563,1028.793 L1085.1563,1029.9023 Q1085.1563,1030.3711 1084.9688,1030.5742 Q1084.7969,1030.7617 1084.5156,1030.7617 Q1084.25,1030.7617 1084.0938,1030.6211 Q1083.9375,1030.4805 1083.8594,1030.0742 Q1083.8125,1029.8086 1083.6875,1029.668 Q1083.4219,1029.3711 1082.9531,1029.1992 Q1082.4844,1029.0273 1082.0156,1029.0273 Q1081.4375,1029.0273 1080.9375,1029.293 Q1080.4531,1029.543 1080.0781,1030.1211 Q1079.7031,1030.6836 1079.7031,1031.4648 L1079.7031,1032.3086 Q1079.7031,1033.2461 1080.3906,1033.8867 Q1081.0781,1034.5117 1082.2813,1034.5117 Q1083.0156,1034.5117 1083.5156,1034.3086 Q1083.7969,1034.1992 1084.125,1033.8555 Q1084.3281,1033.6523 1084.4375,1033.6055 Q1084.5625,1033.543 1084.7031,1033.543 Q1084.9688,1033.543 1085.1563,1033.7461 Q1085.3594,1033.9336 1085.3594,1034.1992 Q1085.3594,1034.4648 1085.0938,1034.7773 Q1084.7031,1035.2148 1084.0938,1035.4648 Q1083.2813,1035.8086 1082.2969,1035.8086 Q1081.1406,1035.8086 1080.2031,1035.3398 Q1079.4531,1034.9492 1078.9219,1034.1367 Q1078.4063,1033.3086 1078.4063,1032.3398 L1078.4063,1031.4492 Q1078.4063,1030.4336 1078.875,1029.5586 Q1079.3594,1028.6836 1080.1875,1028.2148 Q1081.0313,1027.7305 1081.9688,1027.7305 Q1082.5313,1027.7305 1083.0156,1027.8711 Q1083.5156,1027.9961 1083.9375,1028.2617 Z " fill="#000000"/><text fill="#000000" font-family="Segoe UI" font-size="13" lengthAdjust="spacing" textLength="72" x="1102" y="1037.0039">UsuarioReto</text><line style="stroke:#6E879D;stroke-width:0.5;" x1="1039" x2="1207" y1="1046.6211" y2="1046.6211"/><text fill="#000000" font-family="Segoe UI" font-size="13" lengthAdjust="spacing" textLength="118" x="1044" y="1064.6494">+id_usuario_reto: int</text><text fill="#000000" font-family="Segoe UI" font-size="13" lengthAdjust="spacing" textLength="89" x="1044" y="1081.9404">+id_usuario: int</text><text fill="#000000" font-family="Segoe UI" font-size="13" lengthAdjust="spacing" textLength="70" x="1044" y="1099.2314">+id_reto: int</text><text fill="#000000" font-family="Segoe UI" font-size="13" lengthAdjust="spacing" textLength="89" x="1044" y="1116.5225">+estado: string</text><text fill="#000000" font-family="Segoe UI" font-size="13" lengthAdjust="spacing" textLength="116" x="1044" y="1133.8135">+progreso: decimal</text><text fill="#000000" font-family="Segoe UI" font-size="13" lengthAdjust="spacing" textLength="158" x="1044" y="1151.1045">+f_inscripcion: timestamptz</text></g><!--class ProgresoMensual--><g id="elem_ProgresoMensual"><rect codeLine="178" fill="#FFFFFF" height="139.0371" id="ProgresoMensual" rx="6" ry="6" style="stroke:#6E879D;stroke-width:0.5;" width="141" x="389" y="1092.1211"/><ellipse cx="406.6" cy="1114.4121" fill="#ADD1B2" rx="10" ry="10" style="stroke:#181818;stroke-width:1.0;"/><path d="M407.5375,1111.0527 Q407.6625,1110.8809 407.8031,1110.8027 Q407.9438,1110.7246 408.1156,1110.7246 Q408.3969,1110.7246 408.5688,1110.9277 Q408.7563,1111.1152 408.7563,1111.584 L408.7563,1112.6934 Q408.7563,1113.1621 408.5688,1113.3652 Q408.3969,1113.5527 408.1156,1113.5527 Q407.85,1113.5527 407.6938,1113.4121 Q407.5375,1113.2715 407.4594,1112.8652 Q407.4125,1112.5996 407.2875,1112.459 Q407.0219,1112.1621 406.5531,1111.9902 Q406.0844,1111.8184 405.6156,1111.8184 Q405.0375,1111.8184 404.5375,1112.084 Q404.0531,1112.334 403.6781,1112.9121 Q403.3031,1113.4746 403.3031,1114.2559 L403.3031,1115.0996 Q403.3031,1116.0371 403.9906,1116.6777 Q404.6781,1117.3027 405.8813,1117.3027 Q406.6156,1117.3027 407.1156,1117.0996 Q407.3969,1116.9902 407.725,1116.6465 Q407.9281,1116.4434 408.0375,1116.3965 Q408.1625,1116.334 408.3031,1116.334 Q408.5688,1116.334 408.7563,1116.5371 Q408.9594,1116.7246 408.9594,1116.9902 Q408.9594,1117.2559 408.6938,1117.5684 Q408.3031,1118.0059 407.6938,1118.2559 Q406.8813,1118.5996 405.8969,1118.5996 Q404.7406,1118.5996 403.8031,1118.1309 Q403.0531,1117.7402 402.5219,1116.9277 Q402.0063,1116.0996 402.0063,1115.1309 L402.0063,1114.2402 Q402.0063,1113.2246 402.475,1112.3496 Q402.9594,1111.4746 403.7875,1111.0059 Q404.6313,1110.5215 405.5688,1110.5215 Q406.1313,1110.5215 406.6156,1110.6621 Q407.1156,1110.7871 407.5375,1111.0527 Z " fill="#000000"/><text fill="#000000" font-family="Segoe UI" font-size="13" font-style="italic" lengthAdjust="spacing" textLength="76" x="433.9" y="1111.1494">&#171;ReadModel&#187;</text><text fill="#000000" font-family="Segoe UI" font-size="13" lengthAdjust="spacing" textLength="103" x="420.4" y="1128.4404">ProgresoMensual</text><line style="stroke:#6E879D;stroke-width:0.5;" x1="390" x2="529" y1="1136.7031" y2="1136.7031"/><text fill="#000000" font-family="Segoe UI" font-size="13" lengthAdjust="spacing" textLength="117" x="395" y="1154.7314">+monthLabel: string</text><text fill="#000000" font-family="Segoe UI" font-size="13" lengthAdjust="spacing" textLength="93" x="395" y="1172.0225">+streakDays: int</text><text fill="#000000" font-family="Segoe UI" font-size="13" lengthAdjust="spacing" textLength="98" x="395" y="1189.3135">+monthlyAvg: int</text><text fill="#000000" font-family="Segoe UI" font-size="13" lengthAdjust="spacing" textLength="129" x="395" y="1206.6045">+habitsCompleted: int</text><text fill="#000000" font-family="Segoe UI" font-size="13" lengthAdjust="spacing" textLength="104" x="395" y="1223.8955">+bestWeekPct: int</text></g><!--class HistorialDiario--><g id="elem_HistorialDiario"><rect codeLine="186" fill="#FFFFFF" height="121.7461" id="HistorialDiario" rx="6" ry="6" style="stroke:#6E879D;stroke-width:0.5;" width="124" x="397.5" y="1440.6211"/><ellipse cx="416.45" cy="1462.9121" fill="#ADD1B2" rx="10" ry="10" style="stroke:#181818;stroke-width:1.0;"/><path d="M417.3875,1459.5527 Q417.5125,1459.3809 417.6531,1459.3027 Q417.7938,1459.2246 417.9656,1459.2246 Q418.2469,1459.2246 418.4188,1459.4277 Q418.6063,1459.6152 418.6063,1460.084 L418.6063,1461.1934 Q418.6063,1461.6621 418.4188,1461.8652 Q418.2469,1462.0527 417.9656,1462.0527 Q417.7,1462.0527 417.5438,1461.9121 Q417.3875,1461.7715 417.3094,1461.3652 Q417.2625,1461.0996 417.1375,1460.959 Q416.8719,1460.6621 416.4031,1460.4902 Q415.9344,1460.3184 415.4656,1460.3184 Q414.8875,1460.3184 414.3875,1460.584 Q413.9031,1460.834 413.5281,1461.4121 Q413.1531,1461.9746 413.1531,1462.7559 L413.1531,1463.5996 Q413.1531,1464.5371 413.8406,1465.1777 Q414.5281,1465.8027 415.7313,1465.8027 Q416.4656,1465.8027 416.9656,1465.5996 Q417.2469,1465.4902 417.575,1465.1465 Q417.7781,1464.9434 417.8875,1464.8965 Q418.0125,1464.834 418.1531,1464.834 Q418.4188,1464.834 418.6063,1465.0371 Q418.8094,1465.2246 418.8094,1465.4902 Q418.8094,1465.7559 418.5438,1466.0684 Q418.1531,1466.5059 417.5438,1466.7559 Q416.7313,1467.0996 415.7469,1467.0996 Q414.5906,1467.0996 413.6531,1466.6309 Q412.9031,1466.2402 412.3719,1465.4277 Q411.8563,1464.5996 411.8563,1463.6309 L411.8563,1462.7402 Q411.8563,1461.7246 412.325,1460.8496 Q412.8094,1459.9746 413.6375,1459.5059 Q414.4813,1459.0215 415.4188,1459.0215 Q415.9813,1459.0215 416.4656,1459.1621 Q416.9656,1459.2871 417.3875,1459.5527 Z " fill="#000000"/><text fill="#000000" font-family="Segoe UI" font-size="13" font-style="italic" lengthAdjust="spacing" textLength="76" x="434.05" y="1459.6494">&#171;ReadModel&#187;</text><text fill="#000000" font-family="Segoe UI" font-size="13" lengthAdjust="spacing" textLength="83" x="430.55" y="1476.9404">HistorialDiario</text><line style="stroke:#6E879D;stroke-width:0.5;" x1="398.5" x2="520.5" y1="1485.2031" y2="1485.2031"/><text fill="#000000" font-family="Segoe UI" font-size="13" lengthAdjust="spacing" textLength="91" x="403.5" y="1503.2314">+dayKey: string</text><text fill="#000000" font-family="Segoe UI" font-size="13" lengthAdjust="spacing" textLength="103" x="403.5" y="1520.5225">+entriesCount: int</text><text fill="#000000" font-family="Segoe UI" font-size="13" lengthAdjust="spacing" textLength="112" x="403.5" y="1537.8135">+goalsReached: int</text><text fill="#000000" font-family="Segoe UI" font-size="13" lengthAdjust="spacing" textLength="101" x="403.5" y="1555.1045">+filterTypeId?: int</text></g><!--class LogroCliente--><g id="elem_LogroCliente"><rect codeLine="193" fill="#FFFFFF" height="139.0371" id="LogroCliente" rx="6" ry="6" style="stroke:#6E879D;stroke-width:0.5;" width="178" x="370.5" y="1266.1211"/><ellipse cx="418.5" cy="1288.4121" fill="#ADD1B2" rx="10" ry="10" style="stroke:#181818;stroke-width:1.0;"/><path d="M419.4375,1285.0527 Q419.5625,1284.8809 419.7031,1284.8027 Q419.8438,1284.7246 420.0156,1284.7246 Q420.2969,1284.7246 420.4688,1284.9277 Q420.6563,1285.1152 420.6563,1285.584 L420.6563,1286.6934 Q420.6563,1287.1621 420.4688,1287.3652 Q420.2969,1287.5527 420.0156,1287.5527 Q419.75,1287.5527 419.5938,1287.4121 Q419.4375,1287.2715 419.3594,1286.8652 Q419.3125,1286.5996 419.1875,1286.459 Q418.9219,1286.1621 418.4531,1285.9902 Q417.9844,1285.8184 417.5156,1285.8184 Q416.9375,1285.8184 416.4375,1286.084 Q415.9531,1286.334 415.5781,1286.9121 Q415.2031,1287.4746 415.2031,1288.2559 L415.2031,1289.0996 Q415.2031,1290.0371 415.8906,1290.6777 Q416.5781,1291.3027 417.7813,1291.3027 Q418.5156,1291.3027 419.0156,1291.0996 Q419.2969,1290.9902 419.625,1290.6465 Q419.8281,1290.4434 419.9375,1290.3965 Q420.0625,1290.334 420.2031,1290.334 Q420.4688,1290.334 420.6563,1290.5371 Q420.8594,1290.7246 420.8594,1290.9902 Q420.8594,1291.2559 420.5938,1291.5684 Q420.2031,1292.0059 419.5938,1292.2559 Q418.7813,1292.5996 417.7969,1292.5996 Q416.6406,1292.5996 415.7031,1292.1309 Q414.9531,1291.7402 414.4219,1290.9277 Q413.9063,1290.0996 413.9063,1289.1309 L413.9063,1288.2402 Q413.9063,1287.2246 414.375,1286.3496 Q414.8594,1285.4746 415.6875,1285.0059 Q416.5313,1284.5215 417.4688,1284.5215 Q418.0313,1284.5215 418.5156,1284.6621 Q419.0156,1284.7871 419.4375,1285.0527 Z " fill="#000000"/><text fill="#000000" font-family="Segoe UI" font-size="13" font-style="italic" lengthAdjust="spacing" textLength="76" x="436.5" y="1285.1494">&#171;ReadModel&#187;</text><text fill="#000000" font-family="Segoe UI" font-size="13" lengthAdjust="spacing" textLength="74" x="437.5" y="1302.4404">LogroCliente</text><line style="stroke:#6E879D;stroke-width:0.5;" x1="371.5" x2="547.5" y1="1310.7031" y2="1310.7031"/><text fill="#000000" font-family="Segoe UI" font-size="13" lengthAdjust="spacing" textLength="60" x="376.5" y="1328.7314">+id: string</text><text fill="#000000" font-family="Segoe UI" font-size="13" lengthAdjust="spacing" textLength="70" x="376.5" y="1346.0225">+title: string</text><text fill="#000000" font-family="Segoe UI" font-size="13" lengthAdjust="spacing" textLength="116" x="376.5" y="1363.3135">+unlocked: boolean</text><text fill="#000000" font-family="Segoe UI" font-size="13" lengthAdjust="spacing" textLength="166" x="376.5" y="1380.6045">+unlockedAt?: YYYY-MM-DD</text><text fill="#000000" font-family="Segoe UI" font-size="13" lengthAdjust="spacing" textLength="95" x="376.5" y="1397.8955">+progress?: X/Y</text></g><!--link Usuario to PasswordResetToken--><g id="link_Usuario_PasswordResetToken"><path codeLine="204" d="M237.56,700.2911 C277.04,700.2911 325.13,700.2911 366.45,700.2911 " fill="none" id="Usuario-PasswordResetToken" style="stroke:#5B7083;stroke-width:1.0;"/><text fill="#000000" font-family="Segoe UI" font-size="13" lengthAdjust="spacing" textLength="41" x="260" y="715.3194">genera</text><text fill="#000000" font-family="Segoe UI" font-size="13" lengthAdjust="spacing" textLength="7" x="245.3813" y="717.4116">1</text><text fill="#000000" font-family="Segoe UI" font-size="13" lengthAdjust="spacing" textLength="18" x="340.6368" y="716.8033">0..*</text></g><!--link Usuario to RegistroHabito--><g id="link_Usuario_RegistroHabito"><path codeLine="206" d="M97,747.8311 C97,992.1511 97,1781.3711 97,1781.3711 C97,1781.3711 557.91,1781.3711 746.5,1781.3711 " fill="none" id="Usuario-RegistroHabito" style="stroke:#5B7083;stroke-width:1.0;"/><text fill="#000000" font-family="Segoe UI" font-size="13" lengthAdjust="spacing" textLength="45" x="51" y="1604.3794">registra</text><text fill="#000000" font-family="Segoe UI" font-size="13" lengthAdjust="spacing" textLength="7" x="83.757" y="769.4827">1</text><text fill="#000000" font-family="Segoe UI" font-size="13" lengthAdjust="spacing" textLength="18" x="720.3875" y="1798.002">0..*</text></g><!--link TipoHabito to RegistroHabito--><g id="link_TipoHabito_RegistroHabito"><path codeLine="207" d="M523.67,1748.6211 C585.69,1748.6211 679.78,1748.6211 746.4,1748.6211 " fill="none" id="TipoHabito-RegistroHabito" style="stroke:#5B7083;stroke-width:1.0;"/><text fill="#000000" font-family="Segoe UI" font-size="13" lengthAdjust="spacing" textLength="45" x="589.04" y="1763.6494">clasifica</text><text fill="#000000" font-family="Segoe UI" font-size="13" lengthAdjust="spacing" textLength="7" x="531.4943" y="1767.1251">1</text><text fill="#000000" font-family="Segoe UI" font-size="13" lengthAdjust="spacing" textLength="18" x="720.5536" y="1762.247">0..*</text></g><!--link Usuario to RegistroComida--><g id="link_Usuario_RegistroComida"><path codeLine="209" d="M128,747.6711 C128,947.7911 128,1501.6211 128,1501.6211 C128,1501.6211 387,1501.6211 387,1501.6211 C387,1501.6211 387,1688.0011 387,1798.6711 " fill="none" id="Usuario-RegistroComida" style="stroke:#5B7083;stroke-width:1.0;"/><text fill="#000000" font-family="Segoe UI" font-size="13" lengthAdjust="spacing" textLength="45" x="82" y="1417.6994">registra</text><text fill="#000000" font-family="Segoe UI" font-size="13" lengthAdjust="spacing" textLength="7" x="117.7117" y="769.3075">1</text><text fill="#000000" font-family="Segoe UI" font-size="13" lengthAdjust="spacing" textLength="18" x="361.7414" y="1787.8331">0..*</text></g><!--link Alimento to RegistroComida--><g id="link_Alimento_RegistroComida"><path codeLine="210" d="M246.32,1878.6211 C287.48,1878.6211 336.32,1878.6211 376.87,1878.6211 " fill="none" id="Alimento-RegistroComida" style="stroke:#5B7083;stroke-width:1.0;"/><text fill="#000000" font-family="Segoe UI" font-size="13" lengthAdjust="spacing" textLength="112" x="198.59" y="1874.6494">referencia opcional</text><text fill="#000000" font-family="Segoe UI" font-size="13" lengthAdjust="spacing" textLength="20" x="254.0752" y="1893.3369">0..1</text><text fill="#000000" font-family="Segoe UI" font-size="13" lengthAdjust="spacing" textLength="18" x="350.9955" y="1893.3908">0..*</text></g><!--reverse link RegistroComida to RegistroHabito--><g id="link_RegistroComida_RegistroHabito"><path codeLine="211" d="M548.09,1824.3711 C609.24,1824.3711 686.04,1824.3711 746.35,1824.3711 " fill="none" id="RegistroComida-backto-RegistroHabito" style="stroke:#5B7083;stroke-width:1.0;"/><polygon fill="#5B7083" points="542.09,1824.3711,551.09,1828.3711,547.09,1824.3711,551.09,1820.3711,542.09,1824.3711" style="stroke:#5B7083;stroke-width:1.0;"/><text fill="#000000" font-family="Segoe UI" font-size="13" lengthAdjust="spacing" textLength="94" x="549.22" y="1820.3994">vinculo nutricion</text><text fill="#000000" font-family="Segoe UI" font-size="13" lengthAdjust="spacing" textLength="7" x="550.0264" y="1834.1935">1</text><text fill="#000000" font-family="Segoe UI" font-size="13" lengthAdjust="spacing" textLength="20" x="718.4101" y="1844.7435">0..1</text></g><!--link Usuario to ConfiguracionNotificaciones--><g id="link_Usuario_ConfiguracionNotificaciones"><path codeLine="213" d="M237.67,652.9511 C284.94,652.9511 336,652.9511 336,652.9511 C336,652.9511 336,368.9711 336,232.8011 " fill="none" id="Usuario-ConfiguracionNotificaciones" style="stroke:#5B7083;stroke-width:1.0;"/><text fill="#000000" font-family="Segoe UI" font-size="13" lengthAdjust="spacing" textLength="36" x="299" y="507.0694">define</text><text fill="#000000" font-family="Segoe UI" font-size="13" lengthAdjust="spacing" textLength="7" x="245.5018" y="665.5595">1</text><text fill="#000000" font-family="Segoe UI" font-size="13" lengthAdjust="spacing" textLength="7" x="316.8953" y="254.4499">1</text></g><!--link ConfiguracionNotificaciones to ConfiguracionAvisoHabito--><g id="link_ConfiguracionNotificaciones_ConfiguracionAvisoHabito"><path codeLine="214" d="M602,232.8611 C602,249.5811 602,262.6211 602,262.6211 C602,262.6211 633.43,262.6211 672.72,262.6211 " fill="none" id="ConfiguracionNotificaciones-ConfiguracionAvisoHabito" style="stroke:#5B7083;stroke-width:1.0;"/><text fill="#000000" font-family="Segoe UI" font-size="13" lengthAdjust="spacing" textLength="49" x="572.48" y="277.6494">contiene</text><text fill="#000000" font-family="Segoe UI" font-size="13" lengthAdjust="spacing" textLength="7" x="608.2484" y="254.5156">1</text><text fill="#000000" font-family="Segoe UI" font-size="13" lengthAdjust="spacing" textLength="18" x="646.8838" y="274.7392">1..*</text></g><!--link ConfiguracionAvisoHabito to TipoHabito--><g id="link_ConfiguracionAvisoHabito_TipoHabito"><path codeLine="215" d="M710,364.2411 C710,623.3711 710,1733.6211 710,1733.6211 C710,1733.6211 597.9,1733.6211 523.68,1733.6211 " fill="none" id="ConfiguracionAvisoHabito-TipoHabito" style="stroke:#5B7083;stroke-width:1.0;"/><text fill="#000000" font-family="Segoe UI" font-size="13" lengthAdjust="spacing" textLength="148" x="561" y="1157.1194">aplica por clave funcional</text><text fill="#000000" font-family="Segoe UI" font-size="13" lengthAdjust="spacing" textLength="11" x="683.4969" y="386.2367">..*</text><text fill="#000000" font-family="Segoe UI" font-size="13" lengthAdjust="spacing" textLength="7" x="531.5055" y="1731.4251">1</text></g><!--link Usuario to Notificacion--><g id="link_Usuario_Notificacion"><path codeLine="217" d="M159,605.5611 C159,520.8511 159,390.6211 159,390.6211 C159,390.6211 277.12,390.6211 365.24,390.6211 " fill="none" id="Usuario-Notificacion" style="stroke:#5B7083;stroke-width:1.0;"/><text fill="#000000" font-family="Segoe UI" font-size="13" lengthAdjust="spacing" textLength="36" x="122" y="409.9994">recibe</text><text fill="#000000" font-family="Segoe UI" font-size="13" lengthAdjust="spacing" textLength="7" x="151.6391" y="594.4129">1</text><text fill="#000000" font-family="Segoe UI" font-size="13" lengthAdjust="spacing" textLength="18" x="339.6568" y="405.2662">0..*</text></g><!--link Usuario to TicketSoporte--><g id="link_Usuario_TicketSoporte"><path codeLine="218" d="M222,747.7711 C222,809.9211 222,890.2911 222,890.2911 C222,890.2911 311.61,890.2911 380.75,890.2911 " fill="none" id="Usuario-TicketSoporte" style="stroke:#5B7083;stroke-width:1.0;"/><text fill="#000000" font-family="Segoe UI" font-size="13" lengthAdjust="spacing" textLength="25" x="204.11" y="905.3194">crea</text><text fill="#000000" font-family="Segoe UI" font-size="13" lengthAdjust="spacing" textLength="7" x="220.6711" y="769.417">1</text><text fill="#000000" font-family="Segoe UI" font-size="13" lengthAdjust="spacing" textLength="18" x="354.9348" y="902.4626">0..*</text></g><!--link Usuario to TicketSoporte--><!--link Usuario to UsuarioLogro--><g id="link_Usuario_UsuarioLogro"><path codeLine="220" d="M175,747.8611 C175,770.4311 175,789.6211 175,789.6211 C175,789.6211 1123,789.6211 1123,789.6211 C1123,789.6211 1123,823.9211 1123,857.2911 " fill="none" id="Usuario-UsuarioLogro" style="stroke:#5B7083;stroke-width:1.0;"/><text fill="#000000" font-family="Segoe UI" font-size="13" lengthAdjust="spacing" textLength="69" x="591.95" y="804.6494">desbloquea</text><text fill="#000000" font-family="Segoe UI" font-size="13" lengthAdjust="spacing" textLength="7" x="169.1914" y="769.5156">1</text><text fill="#000000" font-family="Segoe UI" font-size="13" lengthAdjust="spacing" textLength="18" x="1104.0156" y="846.5634">0..*</text></g><!--link Logro to UsuarioLogro--><g id="link_Logro_UsuarioLogro"><path codeLine="221" d="M889.69,919.6211 C933.67,919.6211 992.43,919.6211 1039.97,919.6211 " fill="none" id="Logro-UsuarioLogro" style="stroke:#5B7083;stroke-width:1.0;"/><text fill="#000000" font-family="Segoe UI" font-size="13" lengthAdjust="spacing" textLength="40" x="923.83" y="934.6494">otorga</text><text fill="#000000" font-family="Segoe UI" font-size="13" lengthAdjust="spacing" textLength="7" x="897.5167" y="934.6227">1</text><text fill="#000000" font-family="Segoe UI" font-size="13" lengthAdjust="spacing" textLength="18" x="1014.0612" y="934.3728">0..*</text></g><!--link Usuario to UsuarioReto--><g id="link_Usuario_UsuarioReto"><path codeLine="222" d="M159,747.7711 C159,846.2511 159,1012.1211 159,1012.1211 C159,1012.1211 1123,1012.1211 1123,1012.1211 C1123,1012.1211 1123,1013.7811 1123,1016.6211 " fill="none" id="Usuario-UsuarioReto" style="stroke:#5B7083;stroke-width:1.0;"/><text fill="#000000" font-family="Segoe UI" font-size="13" lengthAdjust="spacing" textLength="51" x="459.07" y="1027.1494">participa</text><text fill="#000000" font-family="Segoe UI" font-size="13" lengthAdjust="spacing" textLength="7" x="151.6664" y="769.417">1</text><text fill="#000000" font-family="Segoe UI" font-size="13" lengthAdjust="spacing" textLength="18" x="1104.0719" y="1005.4791">0..*</text></g><!--link Reto to UsuarioReto--><g id="link_Reto_UsuarioReto"><path codeLine="223" d="M894.5,1087.6211 C937.24,1087.6211 992.45,1087.6211 1037.9,1087.6211 " fill="none" id="Reto-UsuarioReto" style="stroke:#5B7083;stroke-width:1.0;"/><text fill="#000000" font-family="Segoe UI" font-size="13" lengthAdjust="spacing" textLength="36" x="929.2" y="1102.6494">define</text><text fill="#000000" font-family="Segoe UI" font-size="13" lengthAdjust="spacing" textLength="7" x="902.4297" y="1102.6089">1</text><text fill="#000000" font-family="Segoe UI" font-size="13" lengthAdjust="spacing" textLength="18" x="1012.1073" y="1102.3759">0..*</text></g><!--link ProgresoMensual to RegistroHabito--><g id="link_ProgresoMensual_RegistroHabito"><path codeLine="225" d="M530.31,1194.8711 C616.87,1194.8711 752,1194.8711 752,1194.8711 C752,1194.8711 752,1508.0811 752,1667.3811 " fill="none" id="ProgresoMensual-to-RegistroHabito" style="stroke:#5B7083;stroke-width:1.0;stroke-dasharray:7.0,7.0;"/><polygon fill="#5B7083" points="752,1673.3811,756,1664.3811,752,1668.3811,748,1664.3811,752,1673.3811" style="stroke:#5B7083;stroke-width:1.0;"/><text fill="#000000" font-family="Segoe UI" font-size="13" lengthAdjust="spacing" textLength="42" x="709" y="1338.3094">agrega</text></g><!--link ProgresoMensual to Usuario--><g id="link_ProgresoMensual_Usuario"><path codeLine="226" d="M388.7,1161.6211 C295.68,1161.6211 144,1161.6211 144,1161.6211 C144,1161.6211 144,888.3811 144,753.6611 " fill="none" id="ProgresoMensual-to-Usuario" style="stroke:#5B7083;stroke-width:1.0;stroke-dasharray:7.0,7.0;"/><polygon fill="#5B7083" points="144,747.6611,140,756.6611,144,752.6611,148,756.6611,144,747.6611" style="stroke:#5B7083;stroke-width:1.0;"/><text fill="#000000" font-family="Segoe UI" font-size="13" lengthAdjust="spacing" textLength="136" x="7" y="1092.0194">usa metas/preferencias</text></g><!--link HistorialDiario to RegistroHabito--><g id="link_HistorialDiario_RegistroHabito"><path codeLine="227" d="M521.61,1501.6211 C606.67,1501.6211 749,1501.6211 749,1501.6211 C749,1501.6211 749,1592.1711 749,1667.6011 " fill="none" id="HistorialDiario-to-RegistroHabito" style="stroke:#5B7083;stroke-width:1.0;stroke-dasharray:7.0,7.0;"/><polygon fill="#5B7083" points="749,1673.6011,753,1664.6011,749,1668.6011,745,1664.6011,749,1673.6011" style="stroke:#5B7083;stroke-width:1.0;"/><text fill="#000000" font-family="Segoe UI" font-size="13" lengthAdjust="spacing" textLength="89" x="631.29" y="1516.6494">agrupa por dia</text></g><!--link LogroCliente to RegistroHabito--><g id="link_LogroCliente_RegistroHabito"><path codeLine="228" d="M533,1405.3611 C533,1508.2411 533,1688.6211 533,1688.6211 C533,1688.6211 653.72,1688.6211 740.35,1688.6211 " fill="none" id="LogroCliente-to-RegistroHabito" style="stroke:#5B7083;stroke-width:1.0;stroke-dasharray:7.0,7.0;"/><polygon fill="#5B7083" points="746.35,1688.6211,737.35,1684.6211,741.35,1688.6211,737.35,1692.6211,746.35,1688.6211" style="stroke:#5B7083;stroke-width:1.0;"/><text fill="#000000" font-family="Segoe UI" font-size="13" lengthAdjust="spacing" textLength="108" x="424" y="1668.6894">evalua reglas MVP</text></g><!--link LogroCliente to Usuario--><g id="link_LogroCliente_Usuario"><path codeLine="229" d="M370.47,1335.6211 C292.31,1335.6211 191,1335.6211 191,1335.6211 C191,1335.6211 191,924.1711 191,753.7711 " fill="none" id="LogroCliente-to-Usuario" style="stroke:#5B7083;stroke-width:1.0;stroke-dasharray:7.0,7.0;"/><polygon fill="#5B7083" points="191,747.7711,187,756.7711,191,752.7711,195,756.7711,191,747.7711" style="stroke:#5B7083;stroke-width:1.0;"/><text fill="#000000" font-family="Segoe UI" font-size="13" lengthAdjust="spacing" textLength="102" x="88" y="1146.4594">usa metas activas</text></g><!--link Usuario to TipoHabito--><!--link TipoHabito to ConfiguracionNotificaciones--><!--link TicketSoporte to Logro--><!--link Logro to ProgresoMensual--><!--link TipoHabito to Logro--><!--link ConfiguracionNotificaciones to ProgresoMensual--><!--SRC=[fLbhKnmt5ltUlqB5Vl0Zm43inFR4QmhpY5qnBXR8xgQsjgRKtNTc13rIHr9ZZxVot_T8hGRrQs0tLDamqfLqxhaFtQjvmeuEpr-o7RQtpyvKJeLYHqfcLDgA5qbIqDmogvWMYwLbkT2KMQ5aafWR8Kkk-OgbFBjPQ5N9_4WLIhE_dBu-FJmzYYJCakVgYv0BDkU5eMZ6BykKbgJP_lVHH4vpNXNsL4dxcQ-8NT924Vlrux38fVX6RFz5D7cejVeIyFpm_jNUwzxarL9aDvACOVlHL0bb-88kxReWvfJbSb5GN-2zqZdfSC2Rq_SlZbuF27MPEJavVNbw60bc1JUc9tRgVtfYyP4_dhn-zUQuAt9ehHPfPUbZfgGdPIyIaShIq5blJdxiIiL77Ryw-k5r3BeGakow9AQqNQeaMOgSs8hmTswIn0eBwevuAMm5PtAkrVChzfICXKymdlcFc0RPfJB2AYtKioG93BAjeugavMpDEDIILcGyW_zjiVya37wvmAbm7VU1rHImNqt5iKSOO-mxaS-gUcpAXBJDCBnE4uOCA9EBPbIgLQgfExhaPZd3zhUzcLBJd3J9J70pPTT6oRIPciyoJHxjb5cnSXglIllDJ_-HH8ZFyTyNC7v1XkoLkY7P0b-6wPbsypFh15gQZ2Ze1MSEUXSqVIqHo6R6RH-PPqQQQaKvvW-61Q2NzVD3chb_VqGM_C1JcDN0XB82Z0VCToLALQzeaM0n35tSU4l9ONlbP38jofhxQAf5-mKj1EQ6JjDXQkZ44ROtO9pVxJV8vYr7c4qH0vbO8UM6qKgAdES7VV-qtFH6OyYPMc7bmJs2bjA71G38Zhey33w2sPkC5psifKRE49BF5WUzkOphL253Q0uV619OQ6xuuCpSXJuTF6p18w_oi0LhEXvZmGVCvAtRx4QoMhM9cXd9IxDKzb6CHQItBDMDdSDROPJP42x8gNEngBJFCv-L5VEG8SdSyq6IfmNbKvOgLH2NpJYYVCNr-Wf0fkp3X-dPMJFpUoN8Vb2LDYSZQxt4gLQhePLNgZDgi5M6GmBlkt7Qt9KjsBkBGgM1gPQrMwfwOhgHwsFl5rhNzdbQUvqNtxvBFTjqJJfpVsuR-9VQHg8JjT2pX_YoVQA0pCBzoeAG48-vTzVVyBDpThPpVFp_gE-LC7trO-EsN3rU_wXxmL_CNJVDAj9bRzGvVTlR2_81q65cFaCEG2Ilk4yz0-4pd_cLmvDrDN3GJ-DKpb1jtFHcDjr0BdcM-VzmGLsg4fKCrL7Mt4BP3Tam4TYkKxmRlwTpaEFlkAbyDeqmZrv9NOe35_48xcCug5KpMd5HjBdOK6MqbVoPh-wyP4C- -GGhjY-7metyYJlNMqjOyXIr2gJIiMH6BgfGnlNn1Be7S8tVp7tP-KobrWNWK7Ns4BOBwjKBzazIfD9hik9MzMf88Lsk6WcfkNYejWmqzX0tBFQGZvFO4sqyjLiHWsmogd-TGvT8_uVZyXFQBwHxmt23PbM1r68G5L1CkBfWWnEV1mXdX48MxSNRjnV4Sz-5l7jtJyCASRNyn5CgkZhW4_6ROxusBONzWc9zUBje3TSP- -uMQCsbqF4VH3VdcHrnfWyeET3qyE9O-Bvb16pEr_vcwrJo4Xy9PyDTM-Sk53fjR9GjEu3cea0iNg5z-vYF5Oa-w8vgciVmYBn_Lw3nwmvMib18cVsxj9auj8CtPl0YL-h-S_9Rsq6Ui9sT7GHXqHGwhdtCKPb9q8Uff6a1j_Qty9bjxUtkFjyQQhEcR46ID4z6bdHQX2aB5I9FeZRbWIMEKfzv7peaLB7H8NV5kfDyQ4rJK33b0mnnrn5ofxuDM-mF0BqLCdCT-rsfr0UCNviAJXVoI4cKR1AwsyihCbhKWJX46romiriii-Mt2C0YYqmPBmkSo71zCz-sitab0oiZLcYLLuxFJAGq8jkk3e0KsM9itzOzvWWoQQ5-hx2W7jeehP0P5dpppZwrJrd9DOeJKVB43smI3KPAkcboT_TTtoiuH01XIBQ1vUfQxXw0k9d4bMtIJMrZ1rHbRQfS15QQt3EuWD0mLzn52IABdVtzlBzc09bxQXAt01NInyyL42BzmPq4YdtZ27IYrqfpXyJubpJl3N5AsVaNkegSvBzttaKU5wU3M69372H9sulYPLwVu1_nUCS8IHzLhhv8ZopQUX1S4AnFsXIktHKz39CdWT7Fxcd2a-MU4CEBiPft39XSlD_Pszj7qE0-RrATOYK1gQIC66ULR1gb-qU_NEtMAx_7dTLwQe4xfyJeA_OHsjK7qLnOyy8d4rCL3c29wyd5YRSvd4vpkN2Ri3bbIxHZOKbwduUHG-eCAfKFTOTAhRY3vT8p9G3SyL9iTvT67IPSKFEYkcuUF7SJahb_QKqwPCNirqXUkbR0kiSWHv9nQW8AzdJlxcwRfvEc0tGly-Rvi-q4sk8Q8DqOiS0ghYSv0g4eQ8AcFyF7L6aeDp54-Mvo8bqeDG-oq7J9rmYFL7rbAvMAWc0mn8atn1ZuJUv-wXzp736tf9qo5GfR_hYMEBc4WLsNxj8dTZWdZJA6lMCTNrs7UUzQZGTS2XRw-R_wRn_WO5BSmY3rEyCsAnIIWtzdyVuGl4gg1BBERKGE8cMTFvG9rWHNZ-GXkh1meKTE1Q-fpvhKxhND73ZFl_Z6MUzb8V4PAbFBvg9tzlBQoYpKGXDDJH_kFGzz3zXn74XOqReKIyouch0gtDSnZGivdU0XRCuD_PGKoCRnBdNcTEZechBAUkzhd09kshOM3irSSFNeIPL5s2IV48CMzi0lNBAenxX_yuVnAaDwbjEjo48yau-ToxzzSW6e4Y7dcWEdhdnVm0fSJDaQtb_xkWTvPvsnIAjHE2k5B7iFntU94zVcnCU_F_w9BTMw2GbTkIHoSN9vbUJmoSnt9Tuo2q1pT87YHTHiHw4wHibdvSX5TABXKM0sTsMOKR1nmPwMobZZNCHz3mAYpCJr-pNNpx0X7CM5b0cMQhvEQKmhXGC46LwMmMWHZEUJ_m80]--></g></svg>